# xmcd
#
# Track frame offsets: 
#        150
#        12680
#        25486
#        35491
#        47357
#        58588
#        68976
#        81649
#        89312
#        101185
#        110110
#        118475
#        129769
#        139493
#        148055
#        158876
#        164917
#        172595
#        183188
#        191278
#        203458
#
# Disc length: 2847 seconds
#
# Revision: 0
# Processed by: cddbd v1.5.2PL0 Copyright (c) Steve Scherf et al.
# Submitted via: ExactAudioCopyFreeDBPlugin 1.0
#
DISCID=340b1d15
DTITLE=Johnny Cash - The Complete Early Hits Collection CD1
DYEAR=2006
DGENRE=Country
TTITLE0=I Walk The Line
TTITLE1=Folsom Prison Blues
TTITLE2=Ballad Of A Teenage Queen
TTITLE3=So Doggone Lonesome
TTITLE4=Cry, Cry, Cry
TTITLE5=There You Go
TTITLE6=Next In Line
TTITLE7=Come In Stranger
TTITLE8=Thanks A Lot
TTITLE9=Katy Too
TTITLE10=Guess Things Happen That Way
TTITLE11=Oh Lonesome Me
TTITLE12=It's Just About Time
TTITLE13=I Forgot To Remember To Forget
TTITLE14=I Just Thought You'd Like To Know
TTITLE15=You Tell Me
TTITLE16=Hey Good Lookin'
TTITLE17=Cold, Cold Heart
TTITLE18=I Can't Help It (If I'm Still In Love With You)
TTITLE19=Goodnight Irene
TTITLE20=Goodbye Little Darlin'
EXTD=
EXTT0=
EXTT1=
EXTT2=
EXTT3=
EXTT4=
EXTT5=
EXTT6=
EXTT7=
EXTT8=
EXTT9=
EXTT10=
EXTT11=
EXTT12=
EXTT13=
EXTT14=
EXTT15=
EXTT16=
EXTT17=
EXTT18=
EXTT19=
EXTT20=
PLAYORDER=
